<?xml version="1.0" standalone="no"?>
<!DOCTYPE svg PUBLIC "-//W3C//DTD SVG 1.1//EN" "http://www.w3.org/Graphics/SVG/1.1/DTD/svg11.dtd" >
<svg xmlns="http://www.w3.org/2000/svg">
<metadata>
Created by FontForge 20120731 at Mon Jun 12 14:33:20 2017
 By admin
</metadata>
<defs>
<font id="iconfont" horiz-adv-x="1024" >
  <font-face 
    font-family="iconfont"
    font-weight="500"
    font-stretch="normal"
    units-per-em="1024"
    panose-1="2 0 6 3 0 0 0 0 0 0"
    ascent="896"
    descent="-128"
    x-height="792"
    bbox="-0.368421 -146 1078 896"
    underline-thickness="0"
    underline-position="0"
    unicode-range="U+0078-E729"
  />
<missing-glyph 
 />
    <glyph glyph-name=".notdef" 
 />
    <glyph glyph-name=".notdef" 
 />
    <glyph glyph-name=".null" horiz-adv-x="0" 
 />
    <glyph glyph-name="nonmarkingreturn" horiz-adv-x="341" 
 />
    <glyph glyph-name="x" unicode="x" horiz-adv-x="1001" 
d="M281 543q-27 -1 -53 -1h-83q-18 0 -36.5 -6t-32.5 -18.5t-23 -32t-9 -45.5v-76h912v41q0 16 -0.5 30t-0.5 18q0 13 -5 29t-17 29.5t-31.5 22.5t-49.5 9h-133v-97h-438v97zM955 310v-52q0 -23 0.5 -52t0.5 -58t-10.5 -47.5t-26 -30t-33 -16t-31.5 -4.5q-14 -1 -29.5 -0.5
t-29.5 0.5h-32l-45 128h-439l-44 -128h-29h-34q-20 0 -45 1q-25 0 -41 9.5t-25.5 23t-13.5 29.5t-4 30v167h911zM163 247q-12 0 -21 -8.5t-9 -21.5t9 -21.5t21 -8.5q13 0 22 8.5t9 21.5t-9 21.5t-22 8.5zM316 123q-8 -26 -14 -48q-5 -19 -10.5 -37t-7.5 -25t-3 -15t1 -14.5
t9.5 -10.5t21.5 -4h37h67h81h80h64h36q23 0 34 12t2 38q-5 13 -9.5 30.5t-9.5 34.5q-5 19 -11 39h-368zM336 498v228q0 11 2.5 23t10 21.5t20.5 15.5t34 6h188q31 0 51.5 -14.5t20.5 -52.5v-227h-327z" />
    <glyph glyph-name="right3" unicode="&#xe608;" 
d="M63 -3v781q0 29 26 42t51 0q55 -29 593 -325v255q0 30 31.5 51.5t76.5 21.5h9q44 0 75.5 -21.5t31.5 -51.5v-729q0 -30 -31.5 -51.5t-75.5 -21.5h-9q-45 0 -76.5 21.5t-31.5 51.5v258q-553 -303 -591 -324q-30 -15 -54.5 -0.5t-24.5 42.5v0z" />
    <glyph glyph-name="left3" unicode="&#xe609;" 
d="M879 -45q-39 21 -592 324v-258q0 -30 -31.5 -51.5t-75.5 -21.5h-9q-45 0 -76.5 21.5t-31.5 51.5v729q0 30 31.5 51.5t76.5 21.5h9q44 0 75.5 -21.5t31.5 -51.5v-255q539 296 593 325q25 13 51 0t26 -42v-781q0 -28 -24.5 -42.5t-53.5 0.5v0z" />
    <glyph glyph-name="right2" unicode="&#xe60c;" 
d="M239 57l338 338l-338 338l107 106l444 -444l-444 -445z" />
    <glyph glyph-name="map" unicode="&#xe624;" 
d="M920 -146h-4.5h-3.5v0h-803v0.5v1.5q-7 -2 -8 -2q-15 0 -26 11t-11 26q0 8 3 16l146 271h107v-50h-82l-124 -224h22h127h495h127h23l-125 224v0v0h-79v50h104l146 -271q4 -8 4 -16q0 -15 -11 -26t-27 -11zM522 19l-13 -15l-13 15q0 1 -23.5 22t-52 48.5t-64.5 70
t-64.5 86t-48.5 97.5t-20 103q0 126 84 215t203 89q118 0 202 -89t84 -215q0 -49 -19.5 -103t-48.5 -97.5t-64.5 -86t-65 -70t-52.5 -48.5t-24 -22zM510 700q-98 0 -167.5 -74.5t-69.5 -179.5q0 -56 31 -117.5t67 -102t81.5 -87.5t56.5 -61q11 14 43.5 46t63 65.5t61.5 74.5
t50.5 88.5t18.5 93.5q0 105 -69.5 179.5t-166.5 74.5zM373 464q0 57 40 97t96.5 40t97 -40t40.5 -97t-40.5 -97t-97 -40t-96.5 40t-40 97zM510 377q36 0 61.5 25.5t25.5 61.5t-25.5 61.5t-61.5 25.5t-61.5 -25.5t-25.5 -61.5t25.5 -61.5t61.5 -25.5z" />
    <glyph glyph-name="plus" unicode="&#xe62c;" 
d="M963 428h-407v407q0 18 -13 31.5t-31 13.5t-31 -13.5t-13 -31.5v-407h-407q-18 0 -31.5 -13t-13.5 -31t13.5 -31t31.5 -13h407v-407q0 -18 13 -31.5t31 -13.5t31 13.5t13 31.5v407h407q18 0 31.5 13t13.5 31t-13.5 31t-31.5 13z" />
    <glyph glyph-name="down" unicode="&#xe60f;" 
d="M79 622l2 2q18 18 44.5 18t44.5 -18l388 -388q19 -19 19 -45t-19 -45l-1 -2q-19 -18 -45 -18t-45 18l-388 388q-18 19 -18 45t18 45zM943 624l2 -2q18 -19 18 -45t-18 -45l-388 -388q-19 -18 -45 -18t-45 18l-1 2q-19 19 -19 45t19 45l388 388q18 18 44.5 18t44.5 -18z
" />
    <glyph glyph-name="up" unicode="&#xe610;" 
d="M79 146l2 -2q18 -18 44.5 -18t44.5 18l388 388q19 19 19 45t-19 45l-1 2q-19 18 -45 18t-45 -18l-388 -388q-18 -19 -18 -45t18 -45zM943 144l2 2q18 19 18 45t-18 45l-388 388q-19 18 -45 18t-45 -18l-1 -2q-19 -19 -19 -45t19 -45l388 -388q18 -18 44.5 -18t44.5 18z
" />
    <glyph glyph-name="divider" unicode="&#xe605;" 
d="M518 768v0q11 0 18.5 -5.5t7.5 -13.5v-745q0 -8 -7.5 -13.5t-18.5 -5.5v0q-10 0 -17.5 5.5t-7.5 13.5v745q0 8 7.5 13.5t17.5 5.5v0z" />
    <glyph glyph-name="goback" unicode="&#xe606;" 
d="M819 492q48 -28 94.5 -95.5t67.5 -148.5q25 -96 25 -217q-39 63 -55 85q-12 18 -31.5 39.5t-63.5 56.5t-91 56q-46 21 -115 31t-115 9l-46 -1v-198l-477 338l477 337v-200q115 -9 174 -21q45 -10 84 -27.5t56 -30.5z" />
    <glyph glyph-name="refresh" unicode="&#xe607;" horiz-adv-x="1025" 
d="M1018 435l-185 234q-16 19 -40 19t-39 -19l-185 -234q-10 -13 -2.5 -28.5t24.5 -15.5h73q-1 -32 -1.5 -47t-3 -48t-6.5 -51.5t-12.5 -50t-20 -52.5t-29.5 -50.5t-41.5 -52t-55.5 -48t-71 -47.5q-5 -3 -3 -8t7 -5q94 15 171 44t127 63.5t88 77.5t57.5 81t32 79t15.5 66
t4 48h75q17 1 24.5 16.5t-3.5 28.5zM434 377h-73q1 32 1.5 47t3 48t6.5 51.5t12.5 50t20 52.5t29.5 50.5t41.5 52t55.5 48t71 47.5q5 3 3 8t-7 5q-94 -15 -171 -44t-127 -63.5t-88 -78t-57.5 -81t-32 -79t-15.5 -66.5t-4 -47h-75q-17 0 -25 -15.5t3 -28.5l185 -234
q16 -19 40 -19t39 19l186 234q10 12 2.5 27.5t-24.5 15.5z" />
    <glyph glyph-name="right-c2" unicode="&#xe60a;" 
d="M512 778q-107 0 -197.5 -53t-143.5 -143.5t-53 -197.5t53 -197.5t143.5 -143.5t197.5 -53t197.5 53t143.5 143.5t53 197.5t-53 197.5t-143.5 143.5t-197.5 53zM607 344v0v0l-164 -163q-8 -9 -19.5 -9t-20 8.5t-8.5 20t9 20.5l143 143q8 8 8 20t-8 20l-143 143
q-9 9 -9 20.5t8.5 19.5t20 8t19.5 -8l164 -163v0v0q16 -17 16 -40t-16 -40z" />
    <glyph glyph-name="home1" unicode="&#xe645;" 
d="M521 792q-1 1 -2 1l-3 -1l-453 -454q-8 -7 -8 -17q0 -9 7 -16t16 -7h177v-316v0q0 -9 9 -9v0h513q9 0 9 9v317h-40v-287h-451v317q0 9 -9 9h-168l402 401l415 -415l28 28zM376 195h84v-85h-84v85zM578 195h84v-85h-84v85zM376 362h84v-85h-84v85zM578 362h84v-85h-84v85z
" />
    <glyph glyph-name="home" unicode="&#xe637;" 
d="M848 -3h-672v368l278 272q29 29 61 29t61 -29l269 -275v-365h3zM221 42h582v307l-256 262q-16 16 -32 16q-7 0 -14 -4t-11 -8l-4 -4v-3l-265 -262v-304zM957 397l-365 365q-3 2 -8 6.5t-22 12t-35 9t-44 -8t-51 -32.5l-368 -349v-5.5t2.5 -12.5t8 -12.5t16 -6.5t27.5 5
l333 326q2 3 6 6.5t17 11t26 10.5t31 -1t35 -17l349 -342l18 -4q31 1 24 39zM342 746h-144v-218l151 141zM547 310h67v-54h-67v54zM547 413v-55h67v55h-67zM410 310h67v-54h-67v54zM410 413v-55h67v55h-67z" />
    <glyph glyph-name="minus" unicode="&#xe729;" 
d="M967 343h-906q-17 0 -29.5 12t-12.5 29t12.5 29t29.5 12h906q18 0 30 -12t12 -29t-12 -29t-30 -12z" />
    <glyph glyph-name="triangle-up" unicode="&#xe600;" 
d="M322 248l190 281l190 -281h-380z" />
    <glyph glyph-name="gift1" unicode="&#xe60d;" 
d="M547 430v202q-17 1 -28 3v0h-2h-1q-25 -3 -39 -5v-200h-415v161q0 19 13.5 32t32.5 13h188q-88 19 -90 73q-1 41 37.5 79.5t92.5 26.5t96 -47t83 -87q20 26 37 44t41.5 39.5t52.5 35t58 17.5q50 6 88.5 -32t32.5 -76q-9 -54 -95 -73h186q19 0 32.5 -13t13.5 -32v-161
h-415zM344 773q-49 19 -77 -28q-20 -34 -5 -50q45 -46 209 -29q-67 84 -127 107v0zM768 695q10 12 6.5 30t-16 31.5t-31.5 20.5t-40 -3q-62 -29 -126 -107q43 -4 87 -2q100 4 120 30v0zM479 -49h-337q-18 0 -30 12t-12 29v406h379v-447zM924 -8q0 -17 -12.5 -29t-29.5 -12
h-337v447h379v-406zM924 -8z" />
    <glyph glyph-name="gift" unicode="&#xe60e;" 
d="M872 665h-31q24 40 20 76q-4 44 -46 72q-44 29 -107 13q-50 -12 -104 -51.5t-93 -92.5q-39 53 -93 92.5t-104 51.5q-63 16 -107 -13q-42 -28 -46 -72q-4 -36 20 -76h-31q-36 0 -61.5 -25.5t-25.5 -61.5v-111q0 -28 17 -51t44 -31q-5 -14 -5 -29v-334q0 -36 25.5 -61
t60.5 -25h612q35 0 60.5 25t25.5 61v334q0 15 -5 29q27 8 43.5 31t16.5 51v111q0 36 -25 61.5t-61 25.5zM817 -3h-275v384h275q10 0 17 -7.5t7 -17.5v-334q0 -10 -7 -17.5t-17 -7.5zM576 665q32 38 72 65.5t75 35.5q37 10 59 -5q17 -11 18 -25q3 -30 -36 -71h-188zM897 578
v-111q0 -10 -7.5 -17.5t-17.5 -7.5h-330v161h330q10 0 17.5 -7t7.5 -18zM480 381v-384h-275q-10 0 -17 7.5t-7 17.5v334q0 10 7 17.5t17 7.5h275zM222 736q1 14 18 25q22 15 59 5q34 -8 74 -35.5t73 -65.5h-188q-13 13 -25.5 33.5t-10.5 37.5zM125 578q0 11 7 18t18 7h330
v-161h-330q-11 0 -18 7.5t-7 17.5v111zM125 578z" />
    <glyph glyph-name="left-c1" unicode="&#xe649;" 
d="M512 723q69 0 132 -26q61 -26 108 -73t73 -108q27 -63 27 -132t-27 -133q-26 -60 -73 -107.5t-108 -72.5q-63 -27 -132 -27t-132 27q-61 25 -108 72.5t-73 107.5q-27 63 -27 132.5t27 132.5q26 61 73 108t108 72q63 27 132 27zM512 779q-107 0 -198 -53t-144 -144
t-53 -198.5t53 -198.5t144 -144t198 -53t198 53t144 144t53 198.5t-53 198.5t-144 144t-198 53v0zM372 384q0 -12 9 -20l182 -170q8 -8 19.5 -8t19.5 8.5t8 20t-9 19.5l-160 150l160 151q8 8 8.5 19.5t-7.5 19.5t-19.5 8.5t-19.5 -7.5l-182 -170q-9 -9 -9 -21z" />
    <glyph glyph-name="right-c1" unicode="&#xe68a;" 
d="M512 723q69 0 132 -26q61 -26 108 -73t73 -108q27 -63 27 -132t-27 -133q-26 -60 -73 -107.5t-108 -72.5q-63 -27 -132 -27t-132 27q-61 25 -108 72.5t-73 107.5q-27 63 -27 132.5t27 132.5q26 61 73 108t108 72q63 27 132 27zM512 779q-107 0 -198 -53t-144 -144
t-53 -198.5t53 -198.5t144 -144t198 -53t198 53t144 144t53 198.5t-53 198.5t-144 144t-198 53v0zM643 405l-182 170q-8 8 -19.5 7.5t-19.5 -8.5t-8 -19.5t9 -19.5l160 -151l-160 -150q-9 -8 -9 -19.5t7.5 -20t19 -8.5t20.5 8l182 170q9 8 9 20t-9 21z" />
    <glyph glyph-name="password" unicode="&#xe602;" 
d="M0 498v-626h1024v626h-1024zM967 -71h-910v512h910v-512zM876 612q13 0 23.5 10.5t10.5 23.5v11q-57 109 -159 174t-228 65q-142 0 -254 -82.5t-155 -213.5v-6q0 -16 10.5 -27.5t23.5 -11.5q23 0 34 22q35 108 129 176.5t212 68.5q106 0 191 -54t128 -145q11 -11 34 -11z
M398 356v-171h57v-171h114v171h57v171h-228z" />
    <glyph glyph-name="varification" unicode="&#xe603;" 
d="M32 864v-960h960v960h-960zM939 -43h-854v854h854v-854zM139 757v-266h53v213h213v53h-266zM885 757v-266h-53v213h-213v53h266zM139 11v266h53v-213h213v-53h-266zM885 11v266h-53v-213h-213v-53h266z" />
    <glyph glyph-name="user" unicode="&#xe604;" 
d="M512 896q-213 0 -362.5 -149.5t-149.5 -362.5t149.5 -362.5t362.5 -149.5t362.5 149.5t149.5 362.5t-149.5 362.5t-362.5 149.5zM512 -71q-92 0 -176.5 36t-145.5 97t-97 145.5t-36 176.5t36 176.5t97 145.5t145.5 97t176.5 36t176.5 -36t145.5 -97t97 -145.5t36 -176.5
t-36 -176.5t-97 -145.5t-145.5 -97t-176.5 -36zM512 668q-73 0 -122 -49t-49 -121.5t49 -121.5t122 -49t122 49t49 121.5t-49 121.5t-122 49zM512 384q-47 0 -80.5 33.5t-33.5 80.5t33.5 80.5t80.5 33.5t80.5 -33.5t33.5 -80.5t-33.5 -80.5t-80.5 -33.5zM193 145
q48 83 133 132.5t186 49.5t186 -49.5t133 -132.5q4 7 10.5 16.5t12.5 18.5t11 16q-62 88 -153.5 138t-199.5 50t-199.5 -50t-153.5 -138z" />
    <glyph glyph-name="left2" unicode="&#xe612;" 
d="M684 -50l-445 445l445 444l106 -106l-338 -338l338 -338z" />
    <glyph glyph-name="left" unicode="&#xe702;" 
d="M750 -49l2 2q18 18 18 44.5t-18 44.5l-388 388q-19 19 -45 19t-45 -19l-2 -1q-18 -19 -18 -45t18 -45l388 -388q19 -18 45 -18t45 18zM752 815l-2 2q-19 18 -45 18t-45 -18l-388 -388q-18 -19 -18 -45t18 -45l2 -1q19 -19 45 -19t45 19l388 388q18 18 18 44.5t-18 44.5z
" />
    <glyph glyph-name="right" unicode="&#xe703;" 
d="M274 817l-2 -2q-18 -18 -18 -44.5t18 -44.5l388 -388q19 -19 45 -19t45 19l2 1q18 19 18 45t-18 45l-388 388q-19 18 -45 18t-45 -18zM272 -47l2 -2q19 -18 45 -18t45 18l388 388q18 19 18 45t-18 45l-2 1q-19 19 -45 19t-45 -19l-388 -388q-18 -18 -18 -44.5t18 -44.5z
" />
    <glyph glyph-name="left-c2" unicode="&#xe704;" 
d="M512 -10q107 0 197.5 53t143.5 143.5t53 197.5t-53 197.5t-143.5 143.5t-197.5 53t-197.5 -53t-143.5 -143.5t-53 -197.5t53 -197.5t143.5 -143.5t197.5 -53zM417 424v0v0l164 163q8 9 19.5 9t20 -8.5t8.5 -20t-9 -20.5l-143 -143q-8 -8 -8 -20t8 -20l143 -143
q9 -9 9 -20.5t-8.5 -19.5t-20 -8t-19.5 8l-164 163q-16 17 -16 40t16 40z" />
    <glyph glyph-name="triangle-down" unicode="&#xe705;" 
d="M702 520l-190 -281l-190 281h380z" />
    <glyph glyph-name="star-full" unicode="&#xe611;" horiz-adv-x="1077" 
d="M539 896l162 -377h377l-323 -270l107 -377l-323 216l-323 -216l107 377l-323 270h377z" />
    <glyph glyph-name="star-empty" unicode="&#xe613;" horiz-adv-x="1077" 
d="M539 828l144 -336h320l-279 -233l5 -17l87 -307l-277 185l-15 -10l-262 -175l92 324l-13 11l-267 222h321l7 16zM539 896l-162 -377h-377l323 -270l-107 -377l323 216l323 -216l-107 377l323 270h-377z" />
    <glyph glyph-name="star-half" unicode="&#xe614;" horiz-adv-x="1077" 
d="M539 828l144 -336h320l-279 -233l5 -17l87 -307l-277 185l-15 -10l-262 -175l92 324l-13 11l-267 222h321l7 16zM539 896l-162 -377h-377l323 -270l-107 -377l323 216l323 -216l-107 377l323 270h-377zM539 867v-763l-286 -185l89 330l-285 246l335 -2z" />
    <glyph glyph-name="dianhua" unicode="&#xe651;" 
d="M450 313q187 -186 237 -135q4 4 10 11q15 15 23 22t22 17.5t24.5 13t27 3.5t33 -6t39 -20t48.5 -34q24 -19 38.5 -38t21.5 -34t4 -33t-6 -29t-16.5 -28t-20.5 -24.5t-25 -24.5t-22 -22q-20 -20 -59.5 -24.5t-95.5 10t-120 44.5t-138.5 84.5t-145.5 124.5t-125.5 144.5
t-85.5 138.5t-45.5 120t-10.5 95.5t24 59.5q6 6 19.5 20.5t21 22t21.5 19.5t24 17t24.5 10.5t28 3t29 -8.5t31.5 -20t34 -36q21 -26 34 -48t20 -38.5t6 -33.5t-3 -27.5t-12.5 -24.5t-17.5 -22t-22 -23q-7 -6 -10 -10q-51 -51 136 -237z" />
    <glyph glyph-name="gongsizhanghao" unicode="&#xe652;" 
d="M621 11h-90v665q0 15 -10.5 25.5t-25.5 10.5h-238q-15 0 -25.5 -10.5t-10.5 -25.5v-665h-90v665q0 52 37 89t89 37h238q52 0 89 -37t37 -89v-665v0zM855 11h-89v292q0 15 -10.5 25.5t-25.5 10.5h-154v90h154q52 0 88.5 -37t36.5 -89v-292zM961 -34h-898q-19 0 -32 13.5
t-13 32t13 31.5t32 13h898q19 0 32 -13t13 -31.5t-13 -32t-32 -13.5zM299 590h55v-56h-55v56zM398 590h55v-56h-55v56zM398 395h55v-55h-55v55zM299 395h55v-55h-55v55zM299 492h55v-55h-55v55zM398 492h55v-55h-55v55zM666 204h55v-55h-55v55zM666 301h55v-55h-55v55z
M263 90q-7 2 -9 8z" />
    <glyph glyph-name="jiudian" unicode="&#xe653;" 
d="M967 -44h-20v814q0 21 -13 35.5t-32 14.5h-47v39q0 10 -6.5 17t-15.5 7h-622q-9 0 -15 -7t-6 -17v-39h-48q-18 0 -31 -14.5t-13 -35.5v-814h-20q-19 0 -32 -10.5t-13 -25t13 -25t32 -10.5h888q19 0 32 10.5t13 25t-13 25t-31 10.5zM452 831q0 8 7 8h27q7 0 7 -8v-38
q0 -7 8 -7h43q7 0 7 7v38q0 8 7 8h28q7 0 7 -8v-134q0 -8 -7 -8h-28q-7 0 -7 8v43q0 7 -7 7h-43q-8 0 -8 -7v-43q0 -8 -7 -8h-27q-7 0 -7 8v134zM376 172h-152v107h151v-107h1zM376 350h-152v107h151v-107h1zM376 528h-152v107h151v-107h1zM598 56h-151v223h151v-223z
M598 350h-151v107h151v-107zM598 528h-151v107h151v-107zM820 172h-151v107h151v-107zM820 350h-151v107h151v-107zM820 528h-151v107h151v-107v0z" />
    <glyph glyph-name="menpiao" unicode="&#xe654;" 
d="M914 -5h-27v157v0q22 11 35.5 23.5t19 26.5t-5 28.5t-36.5 27.5q-20 10 -51 18v103l1 -1q19 10 31 21.5t17 23.5t-4 25t-32 25q-33 16 -92 27v89v0q14 7 23.5 15.5t13 18t-3.5 19t-24 18.5q-22 11 -61 19q-108 33 -162 90v86q0 12 -8.5 20.5t-20.5 8.5t-20.5 -8.5
t-8.5 -20.5v-86q-55 -57 -163 -90q-38 -8 -61 -19q-17 -9 -24 -18.5t-3 -19t13 -17.5t23 -16h1v-89q-60 -11 -92 -27q-24 -12 -33 -25t-4 -25t17 -23t31 -22h1v-102q-31 -8 -51 -18q-26 -13 -36 -27.5t-5 -28.5t18.5 -26.5t35.5 -23.5v0v-157h-27q-23 0 -39.5 -16.5
t-16.5 -39.5t16.5 -39.5t39.5 -16.5h775q23 0 39.5 16.5t16.5 39.5t-16.5 39.5t-39.5 16.5zM534 26q0 -8 -6 -14t-15 -6h-43q-8 0 -14 6t-6 14v74q0 8 6 14t14 6h43q9 0 15 -6t6 -14v-74zM647 26q0 -8 -6 -14t-15 -6h-43q-8 0 -14 6t-6 14v74q0 8 6 14t14 6h43q9 0 15 -6
t6 -14v-74z" />
    <glyph glyph-name="mima" unicode="&#xe655;" 
d="M292 456q-20 0 -34.5 14.5t-14.5 35.5v103q0 56 20 107q20 49 56 88q79 82 193 82t193 -82q36 -39 56 -88q20 -51 20 -107q0 -20 -14.5 -34.5t-34.5 -14.5t-34.5 14.5t-14.5 34.5q0 75 -49.5 126.5t-121.5 51.5t-121.5 -51.5t-49.5 -126.5v-103q0 -21 -14.5 -35.5
t-34.5 -14.5zM512 46q-37 0 -63.5 26.5t-26.5 63.5q0 24 12.5 45t33.5 33q10 6 21 9v143q0 10 7.5 17.5t17.5 7.5q18 0 23 -18h15q10 0 17 -7.5t7 -17.5q0 -13 -11 -21q11 -7 11 -20q0 -15 -12 -22q-6 -3 -12 -3h-14v-60q22 -7 37 -23q27 -26 27 -63q0 -24 -12.5 -45
t-33.5 -33q-20 -12 -44 -12zM513.5 369q-3.5 0 -3.5 -3l1 -161l-10 -2q-12 -2 -23 -8q-34 -19 -34 -59q0 -28 20 -48t48 -20q18 0 33 9q35 19 35 59q0 28 -20 48q-14 15 -35 19l-8 2v98h35l1 1q2 1 2 3q0 3 -3 3h-35v35h35h1q2 1 2 3q0 3 -3 3h-35v15q0 3 -3.5 3zM512 74
q-25 0 -43.5 18t-18.5 44q0 36 32 54q14 8 30 8v0q26 0 44 -18t18 -44q0 -36 -32 -54q-14 -8 -30 -8v0zM512 176q-11 0 -20 -5q-20 -11 -20 -35q0 -17 11.5 -29t28.5 -12v0q11 0 20 6q20 11 20 35q0 17 -11.5 28.5t-28.5 11.5zM741 -118h-458q-35 0 -68 14
q-32 14 -56.5 38.5t-38.5 55.5q-13 33 -13 69v319q0 36 13 69q14 32 38.5 56t56.5 38t68 14h458q36 0 68 -14t56.5 -38t38.5 -56q14 -33 14 -69v-319q0 -36 -14 -69q-14 -32 -38.5 -56t-56.5 -38q-33 -14 -68 -14zM283 456q-32 0 -55 -23t-23 -55v-319q0 -32 23 -55t55 -23
h458q32 0 55 23t23 55v319q0 32 -23 55t-55 23h-458v0z" />
    <glyph glyph-name="yonghuming" unicode="&#xe656;" 
d="M512 269q-63 0 -121 25q-56 23 -99 66t-67 99q-24 58 -24 121.5t24 121.5q24 55 67 98.5t99 66.5q58 25 121 25t121 -25q56 -23 99 -66.5t67 -98.5q24 -58 24 -121.5t-24 -121.5q-24 -56 -67 -99t-99 -66q-58 -25 -121 -25zM512 793q-88 0 -150.5 -62.5t-62.5 -150.5
t62.5 -150t150.5 -62t150.5 62t62.5 150t-62.5 150.5t-150.5 62.5zM904.5 -124q-20.5 0 -34.5 14.5t-14 35.5q0 93 -46.5 172t-125.5 125t-172 46t-172.5 -46t-125.5 -125t-46 -172q0 -21 -14 -35.5t-34.5 -14.5t-35 14.5t-14.5 35.5q0 90 34 172q34 79 95 140.5t141 94.5
q82 35 172 35t172 -35q80 -34 141 -95t94 -140q35 -82 35 -172q0 -21 -14.5 -35.5t-35 -14.5z" />
    <glyph glyph-name="weixinban" unicode="&#xe658;" 
d="M697 889h-370q-35 0 -59.5 -24.5t-24.5 -59.5v-842q0 -35 24.5 -59.5t59.5 -24.5h370q35 0 60 24.5t25 59.5v842q0 35 -25 59.5t-60 24.5zM461 822h102q7 0 11.5 -5t4.5 -12t-4.5 -12t-11.5 -5h-102q-7 0 -11.5 5t-4.5 12t5 12t11 5zM512 -88q-21 0 -36 15t-15 36
t15 35.5t36 14.5t36 -14.5t15 -35.5t-15 -36t-36 -15zM748 47h-472v674h472v-674z" />
  </font>
</defs>
</svg>
